<svg width="1220" height="210" viewBox="0 0 1220 210" fill="none" xmlns="http://www.w3.org/2000/svg">
<rect width="1220" height="210" fill="url(#paint0_linear_3952_5543)"/>
<mask id="path-1-inside-1_3952_5543" fill="white">
<path fill-rule="evenodd" clip-rule="evenodd" d="M637.393 123.113H588.165C588.125 123.114 588.086 123.114 588.046 123.114C588.006 123.114 587.967 123.114 587.927 123.113H586.468V123.037C578.32 122.244 571.951 115.375 571.951 107.019C571.951 98.1298 579.157 90.9238 588.046 90.9238C588.151 90.9238 588.257 90.9248 588.361 90.9269V90.9244C588.361 77.3295 599.382 66.3086 612.977 66.3086C622.06 66.3086 629.994 71.2277 634.26 78.5471C635.347 78.3848 636.46 78.3008 637.593 78.3008C649.968 78.3008 660 88.3326 660 100.707C660 112.292 651.209 121.823 639.934 122.993V123.113H637.794C637.727 123.114 637.66 123.114 637.593 123.114C637.526 123.114 637.46 123.114 637.393 123.113Z"/>
</mask>
<path d="M637.393 123.113L637.406 121.554H637.393V123.113ZM588.165 123.113V121.554L588.154 121.554L588.165 123.113ZM587.927 123.113L587.938 121.554H587.927V123.113ZM586.468 123.113H584.908V124.673H586.468V123.113ZM586.468 123.037H588.027V121.622L586.619 121.485L586.468 123.037ZM588.361 90.9269L588.331 92.4862L589.921 92.5167V90.9269H588.361ZM634.26 78.5471L632.912 79.3324L633.444 80.2456L634.49 80.0897L634.26 78.5471ZM639.934 122.993L639.773 121.442L638.374 121.587V122.993H639.934ZM639.934 123.113V124.673H641.494V123.113H639.934ZM637.794 123.113V121.554L637.78 121.554L637.794 123.113ZM637.393 121.554H588.165V124.673H637.393V121.554ZM588.154 121.554C588.118 121.554 588.082 121.554 588.046 121.554V124.673C588.09 124.673 588.133 124.673 588.176 124.673L588.154 121.554ZM588.046 121.554C588.01 121.554 587.974 121.554 587.938 121.554L587.916 124.673C587.959 124.673 588.003 124.673 588.046 124.673V121.554ZM587.927 121.554H586.468V124.673H587.927V121.554ZM588.027 123.113V123.037H584.908V123.113H588.027ZM586.619 121.485C579.262 120.769 573.511 114.565 573.511 107.019H570.392C570.392 116.186 577.377 123.72 586.317 124.59L586.619 121.485ZM573.511 107.019C573.511 98.9911 580.018 92.4835 588.046 92.4835V89.3642C578.296 89.3642 570.392 97.2684 570.392 107.019H573.511ZM588.046 92.4835C588.141 92.4835 588.237 92.4844 588.331 92.4862L588.391 89.3675C588.277 89.3653 588.161 89.3642 588.046 89.3642V92.4835ZM589.921 90.9269V90.9244H586.802V90.9269H589.921ZM589.921 90.9244C589.921 78.1908 600.244 67.8682 612.977 67.8682V64.749C598.521 64.749 586.802 76.4681 586.802 90.9244H589.921ZM612.977 67.8682C621.482 67.8682 628.914 72.4727 632.912 79.3324L635.607 77.7617C631.073 69.9827 622.637 64.749 612.977 64.749V67.8682ZM634.49 80.0897C635.501 79.9387 636.538 79.8604 637.593 79.8604V76.7411C636.383 76.7411 635.193 76.831 634.029 77.0045L634.49 80.0897ZM637.593 79.8604C649.107 79.8604 658.44 89.194 658.44 100.707H661.56C661.56 87.4712 650.829 76.7411 637.593 76.7411V79.8604ZM658.44 100.707C658.44 111.485 650.261 120.353 639.773 121.442L640.095 124.545C652.156 123.293 661.56 113.099 661.56 100.707H658.44ZM638.374 122.993V123.113H641.494V122.993H638.374ZM639.934 121.554H637.794V124.673H639.934V121.554ZM637.78 121.554C637.718 121.554 637.655 121.555 637.593 121.555V124.674C637.665 124.674 637.736 124.673 637.807 124.673L637.78 121.554ZM637.593 121.555C637.531 121.555 637.469 121.554 637.406 121.554L637.379 124.673C637.45 124.673 637.522 124.674 637.593 124.674V121.555Z" fill="#E6E8EC" mask="url(#path-1-inside-1_3952_5543)"/>
<path d="M610.781 94.7127C610.781 95.4898 610.628 96.2593 610.33 96.9773C610.033 97.6953 609.597 98.3476 609.048 98.8972C608.498 99.4467 607.846 99.8826 607.128 100.18C606.41 100.477 605.64 100.63 604.863 100.63C604.086 100.63 603.316 100.477 602.598 100.18C601.88 99.8826 601.228 99.4467 600.679 98.8972C600.129 98.3476 599.693 97.6953 599.396 96.9773C599.098 96.2593 598.945 95.4898 598.945 94.7127H600.25C600.25 95.3185 600.369 95.9184 600.601 96.478C600.833 97.0377 601.173 97.5463 601.601 97.9747C602.029 98.403 602.538 98.7428 603.098 98.9747C603.657 99.2065 604.257 99.3258 604.863 99.3258C605.469 99.3258 606.069 99.2065 606.628 98.9747C607.188 98.7428 607.697 98.403 608.125 97.9747C608.553 97.5463 608.893 97.0377 609.125 96.478C609.357 95.9184 609.476 95.3185 609.476 94.7127H610.781Z" fill="#E6E8EC"/>
<path d="M630.675 94.7127C630.675 95.4898 630.522 96.2593 630.225 96.9773C629.927 97.6953 629.492 98.3476 628.942 98.8972C628.393 99.4467 627.74 99.8826 627.022 100.18C626.304 100.477 625.535 100.63 624.758 100.63C623.98 100.63 623.211 100.477 622.493 100.18C621.775 99.8826 621.123 99.4467 620.573 98.8972C620.024 98.3476 619.588 97.6953 619.29 96.9773C618.993 96.2593 618.84 95.4898 618.84 94.7127H620.144C620.144 95.3185 620.264 95.9184 620.496 96.478C620.727 97.0377 621.067 97.5463 621.496 97.9747C621.924 98.403 622.433 98.7428 622.992 98.9747C623.552 99.2065 624.152 99.3258 624.758 99.3258C625.363 99.3258 625.963 99.2065 626.523 98.9747C627.083 98.7428 627.591 98.403 628.02 97.9747C628.448 97.5463 628.788 97.0377 629.02 96.478C629.251 95.9184 629.371 95.3185 629.371 94.7127H630.675Z" fill="#E6E8EC"/>
<rect x="609.246" y="105.488" width="10.6294" height="1.54297" fill="#E6E8EC"/>
<path d="M562.807 75.275H568.302V77.0791H560V75.7616L565.39 67.9988H560.007V66.1797H568.182V67.4673L562.807 75.275Z" fill="#E6E8EC"/>
<path d="M572.399 85.2134H575.819V86.3361H570.653V85.5162L574.006 80.6856H570.657V79.5537H575.744V80.3549L572.399 85.2134Z" fill="#E6E8EC"/>
<path d="M467.952 147.442C468.133 147.495 468.272 147.596 468.368 147.746C468.475 147.884 468.528 148.055 468.528 148.258C468.528 148.514 468.448 148.722 468.288 148.882C468.128 149.042 467.931 149.122 467.696 149.122C467.44 149.122 467.232 149.042 467.072 148.882C466.923 148.711 466.848 148.503 466.848 148.258C466.848 148.13 466.859 148.007 466.88 147.89C466.912 147.762 466.971 147.58 467.056 147.346L467.728 145.138H468.496L467.952 147.442ZM470.672 147.442C470.853 147.495 470.992 147.596 471.088 147.746C471.195 147.884 471.248 148.055 471.248 148.258C471.248 148.514 471.168 148.722 471.008 148.882C470.848 149.042 470.651 149.122 470.416 149.122C470.16 149.122 469.952 149.042 469.792 148.882C469.643 148.711 469.568 148.503 469.568 148.258C469.568 148.13 469.579 148.007 469.6 147.89C469.632 147.762 469.691 147.58 469.776 147.346L470.448 145.138H471.216L470.672 147.442ZM478.008 153.138V157.01H476.84V153.138L472.36 145.81H473.624L477.464 152.098L481.304 145.81H482.488L478.008 153.138ZM486.571 157.09C485.76 157.09 485.03 156.908 484.379 156.546C483.728 156.172 483.216 155.66 482.843 155.01C482.47 154.359 482.283 153.623 482.283 152.802C482.283 151.98 482.47 151.244 482.843 150.594C483.216 149.943 483.728 149.436 484.379 149.074C485.03 148.711 485.76 148.53 486.571 148.53C487.382 148.53 488.112 148.711 488.763 149.074C489.414 149.436 489.92 149.943 490.283 150.594C490.656 151.244 490.843 151.98 490.843 152.802C490.843 153.623 490.656 154.359 490.283 155.01C489.92 155.66 489.414 156.172 488.763 156.546C488.112 156.908 487.382 157.09 486.571 157.09ZM486.571 156.082C487.168 156.082 487.702 155.948 488.171 155.682C488.651 155.404 489.024 155.015 489.291 154.514C489.558 154.012 489.691 153.442 489.691 152.802C489.691 152.162 489.558 151.591 489.291 151.09C489.024 150.588 488.651 150.204 488.171 149.938C487.702 149.66 487.168 149.522 486.571 149.522C485.974 149.522 485.435 149.66 484.955 149.938C484.486 150.204 484.112 150.588 483.835 151.09C483.568 151.591 483.435 152.162 483.435 152.802C483.435 153.442 483.568 154.012 483.835 154.514C484.112 155.015 484.486 155.404 484.955 155.682C485.435 155.948 485.974 156.082 486.571 156.082ZM500.746 148.594V157.01H499.658V155.474C499.359 155.986 498.949 156.386 498.426 156.674C497.903 156.951 497.306 157.09 496.634 157.09C495.535 157.09 494.666 156.786 494.026 156.178C493.397 155.559 493.082 154.658 493.082 153.474V148.594H494.218V153.362C494.218 154.247 494.437 154.919 494.874 155.378C495.311 155.836 495.935 156.066 496.746 156.066C497.631 156.066 498.33 155.799 498.842 155.266C499.354 154.722 499.61 153.97 499.61 153.01V148.594H500.746ZM512.403 148.53C513.459 148.53 514.297 148.839 514.915 149.458C515.545 150.066 515.859 150.956 515.859 152.13V157.01H514.723V152.242C514.723 151.367 514.505 150.7 514.067 150.242C513.63 149.783 513.006 149.554 512.195 149.554C511.289 149.554 510.569 149.826 510.035 150.37C509.513 150.903 509.251 151.644 509.251 152.594V157.01H508.115V145.138H509.251V150.066C509.561 149.575 509.987 149.196 510.531 148.93C511.075 148.663 511.699 148.53 512.403 148.53ZM521.887 148.53C522.986 148.53 523.829 148.807 524.415 149.362C525.002 149.906 525.295 150.716 525.295 151.794V157.01H524.207V155.698C523.951 156.135 523.573 156.476 523.071 156.722C522.581 156.967 521.994 157.09 521.311 157.09C520.373 157.09 519.626 156.866 519.071 156.418C518.517 155.97 518.239 155.378 518.239 154.642C518.239 153.927 518.495 153.351 519.007 152.914C519.53 152.476 520.357 152.258 521.487 152.258H524.159V151.746C524.159 151.02 523.957 150.471 523.551 150.098C523.146 149.714 522.554 149.522 521.775 149.522C521.242 149.522 520.73 149.612 520.239 149.794C519.749 149.964 519.327 150.204 518.975 150.514L518.463 149.666C518.89 149.303 519.402 149.026 519.999 148.834C520.597 148.631 521.226 148.53 521.887 148.53ZM521.487 156.194C522.127 156.194 522.677 156.05 523.135 155.762C523.594 155.463 523.935 155.036 524.159 154.482V153.106H521.519C520.079 153.106 519.359 153.607 519.359 154.61C519.359 155.1 519.546 155.49 519.919 155.778C520.293 156.055 520.815 156.194 521.487 156.194ZM535.297 148.594L531.553 157.01H530.385L526.657 148.594H527.841L530.993 155.762L534.177 148.594H535.297ZM543.99 153.154H536.95C537.014 154.028 537.35 154.738 537.958 155.282C538.566 155.815 539.334 156.082 540.262 156.082C540.785 156.082 541.265 155.991 541.702 155.81C542.139 155.618 542.518 155.34 542.838 154.978L543.478 155.714C543.105 156.162 542.635 156.503 542.07 156.738C541.515 156.972 540.902 157.09 540.23 157.09C539.366 157.09 538.598 156.908 537.926 156.546C537.265 156.172 536.747 155.66 536.374 155.01C536.001 154.359 535.814 153.623 535.814 152.802C535.814 151.98 535.99 151.244 536.342 150.594C536.705 149.943 537.195 149.436 537.814 149.074C538.443 148.711 539.147 148.53 539.926 148.53C540.705 148.53 541.403 148.711 542.022 149.074C542.641 149.436 543.126 149.943 543.478 150.594C543.83 151.234 544.006 151.97 544.006 152.802L543.99 153.154ZM539.926 149.506C539.115 149.506 538.433 149.767 537.878 150.29C537.334 150.802 537.025 151.474 536.95 152.306H542.918C542.843 151.474 542.529 150.802 541.974 150.29C541.43 149.767 540.747 149.506 539.926 149.506ZM554.794 148.53C555.85 148.53 556.687 148.839 557.306 149.458C557.935 150.066 558.25 150.956 558.25 152.13V157.01H557.114V152.242C557.114 151.367 556.895 150.7 556.458 150.242C556.021 149.783 555.397 149.554 554.586 149.554C553.679 149.554 552.959 149.826 552.426 150.37C551.903 150.903 551.642 151.644 551.642 152.594V157.01H550.506V148.594H551.594V150.146C551.903 149.634 552.33 149.239 552.874 148.962C553.429 148.674 554.069 148.53 554.794 148.53ZM564.805 157.09C563.995 157.09 563.264 156.908 562.613 156.546C561.963 156.172 561.451 155.66 561.077 155.01C560.704 154.359 560.517 153.623 560.517 152.802C560.517 151.98 560.704 151.244 561.077 150.594C561.451 149.943 561.963 149.436 562.613 149.074C563.264 148.711 563.995 148.53 564.805 148.53C565.616 148.53 566.347 148.711 566.997 149.074C567.648 149.436 568.155 149.943 568.517 150.594C568.891 151.244 569.077 151.98 569.077 152.802C569.077 153.623 568.891 154.359 568.517 155.01C568.155 155.66 567.648 156.172 566.997 156.546C566.347 156.908 565.616 157.09 564.805 157.09ZM564.805 156.082C565.403 156.082 565.936 155.948 566.405 155.682C566.885 155.404 567.259 155.015 567.525 154.514C567.792 154.012 567.925 153.442 567.925 152.802C567.925 152.162 567.792 151.591 567.525 151.09C567.259 150.588 566.885 150.204 566.405 149.938C565.936 149.66 565.403 149.522 564.805 149.522C564.208 149.522 563.669 149.66 563.189 149.938C562.72 150.204 562.347 150.588 562.069 151.09C561.803 151.591 561.669 152.162 561.669 152.802C561.669 153.442 561.803 154.012 562.069 154.514C562.347 155.015 562.72 155.404 563.189 155.682C563.669 155.948 564.208 156.082 564.805 156.082ZM575.829 156.498C575.615 156.69 575.349 156.839 575.029 156.946C574.719 157.042 574.394 157.09 574.053 157.09C573.263 157.09 572.655 156.876 572.229 156.45C571.802 156.023 571.589 155.42 571.589 154.642V149.554H570.085V148.594H571.589V146.754H572.725V148.594H575.285V149.554H572.725V154.578C572.725 155.079 572.847 155.463 573.093 155.73C573.349 155.986 573.711 156.114 574.181 156.114C574.415 156.114 574.639 156.076 574.853 156.002C575.077 155.927 575.269 155.82 575.429 155.682L575.829 156.498ZM584.34 157.09C583.657 157.09 583.001 156.994 582.372 156.802C581.753 156.599 581.268 156.348 580.916 156.05L581.428 155.154C581.78 155.431 582.223 155.66 582.756 155.842C583.289 156.012 583.844 156.098 584.42 156.098C585.188 156.098 585.753 155.98 586.116 155.746C586.489 155.5 586.676 155.159 586.676 154.722C586.676 154.412 586.575 154.172 586.372 154.002C586.169 153.82 585.913 153.687 585.604 153.602C585.295 153.506 584.884 153.415 584.372 153.33C583.689 153.202 583.14 153.074 582.724 152.946C582.308 152.807 581.951 152.578 581.652 152.258C581.364 151.938 581.22 151.495 581.22 150.93C581.22 150.226 581.513 149.65 582.1 149.202C582.687 148.754 583.503 148.53 584.548 148.53C585.092 148.53 585.636 148.604 586.18 148.754C586.724 148.892 587.172 149.079 587.524 149.314L587.028 150.226C586.335 149.746 585.508 149.506 584.548 149.506C583.823 149.506 583.273 149.634 582.9 149.89C582.537 150.146 582.356 150.482 582.356 150.898C582.356 151.218 582.457 151.474 582.66 151.666C582.873 151.858 583.135 152.002 583.444 152.098C583.753 152.183 584.18 152.274 584.724 152.37C585.396 152.498 585.935 152.626 586.34 152.754C586.745 152.882 587.092 153.1 587.38 153.41C587.668 153.719 587.812 154.146 587.812 154.69C587.812 155.426 587.503 156.012 586.884 156.45C586.276 156.876 585.428 157.09 584.34 157.09ZM594.344 156.498C594.131 156.69 593.864 156.839 593.544 156.946C593.235 157.042 592.909 157.09 592.568 157.09C591.779 157.09 591.171 156.876 590.744 156.45C590.317 156.023 590.104 155.42 590.104 154.642V149.554H588.6V148.594H590.104V146.754H591.24V148.594H593.8V149.554H591.24V154.578C591.24 155.079 591.363 155.463 591.608 155.73C591.864 155.986 592.227 156.114 592.696 156.114C592.931 156.114 593.155 156.076 593.368 156.002C593.592 155.927 593.784 155.82 593.944 155.682L594.344 156.498ZM599.356 148.53C600.455 148.53 601.297 148.807 601.884 149.362C602.471 149.906 602.764 150.716 602.764 151.794V157.01H601.676V155.698C601.42 156.135 601.041 156.476 600.54 156.722C600.049 156.967 599.463 157.09 598.78 157.09C597.841 157.09 597.095 156.866 596.54 156.418C595.985 155.97 595.708 155.378 595.708 154.642C595.708 153.927 595.964 153.351 596.476 152.914C596.999 152.476 597.825 152.258 598.956 152.258H601.628V151.746C601.628 151.02 601.425 150.471 601.02 150.098C600.615 149.714 600.023 149.522 599.244 149.522C598.711 149.522 598.199 149.612 597.708 149.794C597.217 149.964 596.796 150.204 596.444 150.514L595.932 149.666C596.359 149.303 596.871 149.026 597.468 148.834C598.065 148.631 598.695 148.53 599.356 148.53ZM598.956 156.194C599.596 156.194 600.145 156.05 600.604 155.762C601.063 155.463 601.404 155.036 601.628 154.482V153.106H598.988C597.548 153.106 596.828 153.607 596.828 154.61C596.828 155.1 597.015 155.49 597.388 155.778C597.761 156.055 598.284 156.194 598.956 156.194ZM608.97 152.786L606.986 154.61V157.01H605.85V145.138H606.986V153.186L612.01 148.594H613.418L609.818 152.034L613.754 157.01H612.362L608.97 152.786ZM622.443 153.154H615.403C615.467 154.028 615.803 154.738 616.411 155.282C617.019 155.815 617.787 156.082 618.715 156.082C619.238 156.082 619.718 155.991 620.155 155.81C620.593 155.618 620.971 155.34 621.291 154.978L621.931 155.714C621.558 156.162 621.089 156.503 620.523 156.738C619.969 156.972 619.355 157.09 618.683 157.09C617.819 157.09 617.051 156.908 616.379 156.546C615.718 156.172 615.201 155.66 614.827 155.01C614.454 154.359 614.267 153.623 614.267 152.802C614.267 151.98 614.443 151.244 614.795 150.594C615.158 149.943 615.649 149.436 616.267 149.074C616.897 148.711 617.601 148.53 618.379 148.53C619.158 148.53 619.857 148.711 620.475 149.074C621.094 149.436 621.579 149.943 621.931 150.594C622.283 151.234 622.459 151.97 622.459 152.802L622.443 153.154ZM618.379 149.506C617.569 149.506 616.886 149.767 616.331 150.29C615.787 150.802 615.478 151.474 615.403 152.306H621.371C621.297 151.474 620.982 150.802 620.427 150.29C619.883 149.767 619.201 149.506 618.379 149.506ZM632.452 145.138V157.01H631.364V155.346C631.022 155.911 630.569 156.343 630.004 156.642C629.449 156.94 628.82 157.09 628.116 157.09C627.326 157.09 626.612 156.908 625.972 156.546C625.332 156.183 624.83 155.676 624.468 155.026C624.105 154.375 623.924 153.634 623.924 152.802C623.924 151.97 624.105 151.228 624.468 150.578C624.83 149.927 625.332 149.426 625.972 149.074C626.612 148.711 627.326 148.53 628.116 148.53C628.798 148.53 629.412 148.674 629.956 148.962C630.51 149.239 630.964 149.65 631.316 150.194V145.138H632.452ZM628.212 156.082C628.798 156.082 629.326 155.948 629.796 155.682C630.276 155.404 630.649 155.015 630.916 154.514C631.193 154.012 631.332 153.442 631.332 152.802C631.332 152.162 631.193 151.591 630.916 151.09C630.649 150.588 630.276 150.204 629.796 149.938C629.326 149.66 628.798 149.522 628.212 149.522C627.614 149.522 627.076 149.66 626.596 149.938C626.126 150.204 625.753 150.588 625.476 151.09C625.209 151.591 625.076 152.162 625.076 152.802C625.076 153.442 625.209 154.012 625.476 154.514C625.753 155.015 626.126 155.404 626.596 155.682C627.076 155.948 627.614 156.082 628.212 156.082ZM643.131 157.106C642.299 157.106 641.499 156.972 640.731 156.706C639.973 156.439 639.387 156.087 638.971 155.65L639.435 154.738C639.84 155.143 640.379 155.474 641.051 155.73C641.723 155.975 642.416 156.098 643.131 156.098C644.133 156.098 644.885 155.916 645.387 155.554C645.888 155.18 646.139 154.7 646.139 154.114C646.139 153.666 646 153.308 645.723 153.042C645.456 152.775 645.125 152.572 644.731 152.434C644.336 152.284 643.787 152.124 643.083 151.954C642.24 151.74 641.568 151.538 641.067 151.346C640.565 151.143 640.133 150.839 639.771 150.434C639.419 150.028 639.243 149.479 639.243 148.786C639.243 148.22 639.392 147.708 639.691 147.25C639.989 146.78 640.448 146.407 641.067 146.13C641.685 145.852 642.453 145.714 643.371 145.714C644.011 145.714 644.635 145.804 645.243 145.986C645.861 146.156 646.395 146.396 646.843 146.706L646.443 147.65C645.973 147.34 645.472 147.111 644.939 146.962C644.405 146.802 643.883 146.722 643.371 146.722C642.389 146.722 641.648 146.914 641.147 147.298C640.656 147.671 640.411 148.156 640.411 148.754C640.411 149.202 640.544 149.564 640.811 149.842C641.088 150.108 641.429 150.316 641.835 150.466C642.251 150.604 642.805 150.759 643.499 150.93C644.32 151.132 644.981 151.335 645.483 151.538C645.995 151.73 646.427 152.028 646.779 152.434C647.131 152.828 647.307 153.367 647.307 154.05C647.307 154.615 647.152 155.132 646.843 155.602C646.544 156.06 646.08 156.428 645.451 156.706C644.821 156.972 644.048 157.106 643.131 157.106ZM659.247 145.81V157.01H658.079V151.842H651.071V157.01H649.887V145.81H651.071V150.802H658.079V145.81H659.247ZM667.798 157.106C666.689 157.106 665.681 156.86 664.774 156.37C663.878 155.868 663.174 155.186 662.662 154.322C662.161 153.458 661.91 152.487 661.91 151.41C661.91 150.332 662.161 149.362 662.662 148.498C663.174 147.634 663.878 146.956 664.774 146.466C665.681 145.964 666.689 145.714 667.798 145.714C668.907 145.714 669.905 145.959 670.79 146.45C671.686 146.94 672.39 147.623 672.902 148.498C673.414 149.362 673.67 150.332 673.67 151.41C673.67 152.487 673.414 153.463 672.902 154.338C672.39 155.202 671.686 155.879 670.79 156.37C669.905 156.86 668.907 157.106 667.798 157.106ZM667.798 156.05C668.683 156.05 669.483 155.852 670.198 155.458C670.913 155.052 671.473 154.498 671.878 153.794C672.283 153.079 672.486 152.284 672.486 151.41C672.486 150.535 672.283 149.746 671.878 149.042C671.473 148.327 670.913 147.772 670.198 147.378C669.483 146.972 668.683 146.77 667.798 146.77C666.913 146.77 666.107 146.972 665.382 147.378C664.667 147.772 664.102 148.327 663.686 149.042C663.281 149.746 663.078 150.535 663.078 151.41C663.078 152.284 663.281 153.079 663.686 153.794C664.102 154.498 664.667 155.052 665.382 155.458C666.107 155.852 666.913 156.05 667.798 156.05ZM684.244 155.986V157.01H676.324V145.81H684.004V146.834H677.508V150.818H683.3V151.826H677.508V155.986H684.244ZM695.407 156.498C695.193 156.69 694.927 156.839 694.607 156.946C694.297 157.042 693.972 157.09 693.631 157.09C692.841 157.09 692.233 156.876 691.807 156.45C691.38 156.023 691.167 155.42 691.167 154.642V149.554H689.663V148.594H691.167V146.754H692.303V148.594H694.863V149.554H692.303V154.578C692.303 155.079 692.425 155.463 692.671 155.73C692.927 155.986 693.289 156.114 693.759 156.114C693.993 156.114 694.217 156.076 694.431 156.002C694.655 155.927 694.847 155.82 695.007 155.682L695.407 156.498ZM700.618 157.09C699.807 157.09 699.076 156.908 698.426 156.546C697.775 156.172 697.263 155.66 696.89 155.01C696.516 154.359 696.33 153.623 696.33 152.802C696.33 151.98 696.516 151.244 696.89 150.594C697.263 149.943 697.775 149.436 698.426 149.074C699.076 148.711 699.807 148.53 700.618 148.53C701.428 148.53 702.159 148.711 702.81 149.074C703.46 149.436 703.967 149.943 704.33 150.594C704.703 151.244 704.89 151.98 704.89 152.802C704.89 153.623 704.703 154.359 704.33 155.01C703.967 155.66 703.46 156.172 702.81 156.546C702.159 156.908 701.428 157.09 700.618 157.09ZM700.618 156.082C701.215 156.082 701.748 155.948 702.218 155.682C702.698 155.404 703.071 155.015 703.338 154.514C703.604 154.012 703.738 153.442 703.738 152.802C703.738 152.162 703.604 151.591 703.338 151.09C703.071 150.588 702.698 150.204 702.218 149.938C701.748 149.66 701.215 149.522 700.618 149.522C700.02 149.522 699.482 149.66 699.002 149.938C698.532 150.204 698.159 150.588 697.882 151.09C697.615 151.591 697.482 152.162 697.482 152.802C697.482 153.442 697.615 154.012 697.882 154.514C698.159 155.015 698.532 155.404 699.002 155.682C699.482 155.948 700.02 156.082 700.618 156.082ZM714.181 146.018C713.69 146.018 713.317 146.151 713.061 146.418C712.815 146.684 712.693 147.079 712.693 147.602V148.594H715.285V149.554H712.725V157.01H711.589V149.554H710.085V148.594H711.589V147.554C711.589 146.786 711.807 146.178 712.245 145.73C712.693 145.282 713.322 145.058 714.133 145.058C714.453 145.058 714.762 145.106 715.061 145.202C715.359 145.287 715.61 145.415 715.813 145.586L715.429 146.434C715.098 146.156 714.682 146.018 714.181 146.018ZM719.606 148.53C720.705 148.53 721.547 148.807 722.134 149.362C722.721 149.906 723.014 150.716 723.014 151.794V157.01H721.926V155.698C721.67 156.135 721.291 156.476 720.79 156.722C720.299 156.967 719.713 157.09 719.03 157.09C718.091 157.09 717.345 156.866 716.79 156.418C716.235 155.97 715.958 155.378 715.958 154.642C715.958 153.927 716.214 153.351 716.726 152.914C717.249 152.476 718.075 152.258 719.206 152.258H721.878V151.746C721.878 151.02 721.675 150.471 721.27 150.098C720.865 149.714 720.273 149.522 719.494 149.522C718.961 149.522 718.449 149.612 717.958 149.794C717.467 149.964 717.046 150.204 716.694 150.514L716.182 149.666C716.609 149.303 717.121 149.026 717.718 148.834C718.315 148.631 718.945 148.53 719.606 148.53ZM719.206 156.194C719.846 156.194 720.395 156.05 720.854 155.762C721.313 155.463 721.654 155.036 721.878 154.482V153.106H719.238C717.798 153.106 717.078 153.607 717.078 154.61C717.078 155.1 717.265 155.49 717.638 155.778C718.011 156.055 718.534 156.194 719.206 156.194ZM727.188 150.242C727.454 149.676 727.849 149.25 728.372 148.962C728.905 148.674 729.561 148.53 730.34 148.53V149.634L730.068 149.618C729.182 149.618 728.489 149.89 727.988 150.434C727.486 150.978 727.236 151.74 727.236 152.722V157.01H726.1V148.594H727.188V150.242ZM742.893 148.53C743.949 148.53 744.775 148.834 745.373 149.442C745.981 150.05 746.285 150.946 746.285 152.13V157.01H745.149V152.242C745.149 151.367 744.935 150.7 744.509 150.242C744.093 149.783 743.501 149.554 742.733 149.554C741.858 149.554 741.17 149.826 740.669 150.37C740.167 150.903 739.917 151.644 739.917 152.594V157.01H738.781V152.242C738.781 151.367 738.567 150.7 738.141 150.242C737.725 149.783 737.127 149.554 736.349 149.554C735.485 149.554 734.797 149.826 734.285 150.37C733.783 150.903 733.533 151.644 733.533 152.594V157.01H732.397V148.594H733.485V150.13C733.783 149.618 734.199 149.223 734.733 148.946C735.266 148.668 735.879 148.53 736.573 148.53C737.277 148.53 737.885 148.679 738.397 148.978C738.919 149.276 739.309 149.719 739.565 150.306C739.874 149.751 740.317 149.319 740.893 149.01C741.479 148.69 742.146 148.53 742.893 148.53ZM749.368 145.058C749.614 145.058 749.816 145.143 749.976 145.314C750.136 145.474 750.216 145.676 750.216 145.922C750.216 146.05 750.195 146.188 750.152 146.338C750.12 146.476 750.072 146.642 750.008 146.834L749.32 149.042H748.552L749.112 146.738C748.931 146.684 748.787 146.588 748.68 146.45C748.574 146.3 748.52 146.124 748.52 145.922C748.52 145.666 748.6 145.458 748.76 145.298C748.92 145.138 749.123 145.058 749.368 145.058ZM752.088 145.058C752.334 145.058 752.536 145.143 752.696 145.314C752.856 145.474 752.936 145.676 752.936 145.922C752.936 146.05 752.915 146.188 752.872 146.338C752.84 146.476 752.792 146.642 752.728 146.834L752.04 149.042H751.272L751.832 146.738C751.651 146.684 751.507 146.588 751.4 146.45C751.294 146.3 751.24 146.124 751.24 145.922C751.24 145.666 751.32 145.458 751.48 145.298C751.64 145.138 751.843 145.058 752.088 145.058Z" fill="#E6E8EC"/>
<defs>
<linearGradient id="paint0_linear_3952_5543" x1="610" y1="0" x2="610" y2="210" gradientUnits="userSpaceOnUse">
<stop stop-color="#071141"/>
<stop offset="0.453125" stop-color="#102275"/>
<stop offset="0.833333" stop-color="#091038"/>
<stop offset="1" stop-color="#14215E"/>
</linearGradient>
</defs>
</svg>
